<svg width="22" height="22" viewBox="0 0 22 22" fill="none" xmlns="http://www.w3.org/2000/svg">
<path d="M17.0157 5.5V14.4375C17.0157 14.5743 16.9614 14.7054 16.8647 14.8021C16.768 14.8988 16.6368 14.9531 16.5001 14.9531C16.3633 14.9531 16.2322 14.8988 16.1355 14.8021C16.0388 14.7054 15.9845 14.5743 15.9845 14.4375V6.74438L5.86445 16.8644C5.76671 16.9555 5.63743 17.005 5.50384 17.0027C5.37026 17.0003 5.24281 16.9462 5.14834 16.8517C5.05387 16.7573 4.99975 16.6298 4.99739 16.4962C4.99504 16.3627 5.04462 16.2334 5.1357 16.1356L15.2557 6.01562H7.56258C7.42583 6.01562 7.29467 5.9613 7.19798 5.8646C7.10128 5.7679 7.04695 5.63675 7.04695 5.5C7.04695 5.36325 7.10128 5.2321 7.19798 5.1354C7.29467 5.0387 7.42583 4.98438 7.56258 4.98438H16.5001C16.6368 4.98438 16.768 5.0387 16.8647 5.1354C16.9614 5.2321 17.0157 5.36325 17.0157 5.5Z" fill="#101010"/>
</svg>
