<svg width="151" height="20" viewBox="0 0 151 20" fill="none" xmlns="http://www.w3.org/2000/svg">
<path fill-rule="evenodd" clip-rule="evenodd" d="M112.494 19.5189L107.811 11.3392C109.885 10.3502 111.206 8.2651 111.208 5.97556C111.208 2.68407 108.518 0.00631816 105.212 0.00631816H95.1973V19.5183H99.6509V11.9448H103.196L107.531 19.5189H112.494ZM99.5779 8.17789V3.78193H104.378L104.359 3.78945C105.82 3.86763 106.751 4.7108 106.751 5.98427C106.751 7.24391 105.754 8.12647 104.267 8.1791H99.5776L99.5779 8.17789ZM77.0093 19.5189V0.00601533H91.6512V3.72901H81.5834V7.63273H90.4109V11.4387H81.5834V15.601H92.1495V19.5186H77.0096L77.0093 19.5189ZM56.1261 19.5189L51.4436 11.3392C53.5174 10.3502 54.8381 8.2648 54.8399 5.97556C54.8399 2.68407 52.1503 0.00631816 48.8449 0.00631816H38.8293V19.5183H43.2835V11.9448H46.8293L51.1639 19.5189H56.1261ZM43.2092 8.17789V3.78193H48.0098L47.9911 3.78945C49.4522 3.86763 50.3839 4.7108 50.3839 5.98427C50.3839 7.24391 49.3861 8.12647 47.899 8.1791H43.2092V8.17789ZM26.9606 19.9997C32.3187 19.9997 35.5187 16.9322 35.5187 11.7947V0.0201474H30.9452V11.4901C30.9452 14.268 29.4929 15.8611 26.9609 15.8611H26.9582C24.4262 15.8611 22.9748 14.2683 22.9748 11.4901V0.0201474H18.3992V11.7953C18.3992 16.9322 21.5992 20 26.9582 20H26.9603L26.9606 19.9997ZM12.4174 8.71164C15.0566 9.60774 16.3431 11.8435 16.3431 13.9992C16.3431 17.0363 13.8664 19.509 10.8186 19.5186H0V0.00421211H9.96425C12.5578 0.0282683 14.6492 2.12717 14.6522 4.7102C14.6555 6.3394 13.8096 7.85404 12.4174 8.71074V8.71134V8.71164ZM4.48986 15.8777H9.49041C11.0623 15.8777 11.8847 14.7104 11.8847 13.5566C11.8847 12.6271 11.1424 11.3181 9.49041 11.3181H4.48986V15.8777ZM8.15133 7.67843C9.30287 7.67843 10.2062 6.79286 10.2062 5.66192C10.2062 4.56857 9.2636 3.64541 8.15042 3.64541H4.48956V7.67813H8.15103L8.15133 7.67843ZM70.6104 8.70382C73.2487 9.59871 74.5347 11.8344 74.5347 13.9893C74.5347 17.0258 72.0588 19.496 69.0122 19.5065L58.1982 19.5059V0.000302831L68.157 0C70.7503 0.0243569 72.8407 2.12296 72.8438 4.70509C72.8468 6.33369 72.0015 7.84743 70.6098 8.70322L70.6104 8.70382ZM62.6862 15.8671H67.6843C69.2557 15.8671 70.0777 14.7004 70.0777 13.5469C70.0777 12.6181 69.3348 11.3094 67.6843 11.3094H62.6862V15.8671ZM66.3453 7.67121C67.4977 7.67121 68.401 6.78594 68.401 5.65561C68.401 4.56285 67.4588 3.64 66.3453 3.64H62.6862V7.67121H66.3453ZM131.875 19.5189L127.192 11.3392C129.266 10.3502 130.587 8.2648 130.588 5.97556C130.588 2.68407 127.899 0.00631816 124.594 0.00631816H114.578V19.5183H119.033V11.9448H122.578L126.913 19.5189H131.875H131.875ZM118.958 8.17789V3.78193H123.759L123.74 3.78945C125.201 3.86763 126.133 4.7108 126.133 5.98427C126.133 7.24391 125.135 8.12647 123.648 8.1791H118.958V8.17789ZM138.383 19.5189V11.5677L130.608 0.00601533H136.319L140.794 6.71438L145.289 0.00601533H151L143.207 11.5677V19.5189H138.382H138.383Z" fill="#171717"/>
</svg>
