<svg width="22" height="23" viewBox="0 0 22 23" fill="none" xmlns="http://www.w3.org/2000/svg">
<path d="M19.0781 13.3901V18.2026C19.0781 18.5217 18.9514 18.8277 18.7257 19.0534C18.5001 19.279 18.1941 19.4058 17.875 19.4058H4.125C3.80591 19.4058 3.49989 19.279 3.27426 19.0534C3.04863 18.8277 2.92188 18.5217 2.92188 18.2026V13.3901C2.92188 13.2534 2.9762 13.1222 3.0729 13.0255C3.1696 12.9288 3.30075 12.8745 3.4375 12.8745C3.57425 12.8745 3.7054 12.9288 3.8021 13.0255C3.8988 13.1222 3.95312 13.2534 3.95312 13.3901V18.2026C3.95312 18.2482 3.97123 18.2919 4.00347 18.3242C4.0357 18.3564 4.07942 18.3745 4.125 18.3745H17.875C17.9206 18.3745 17.9643 18.3564 17.9965 18.3242C18.0288 18.2919 18.0469 18.2482 18.0469 18.2026V13.3901C18.0469 13.2534 18.1012 13.1222 18.1979 13.0255C18.2946 12.9288 18.4257 12.8745 18.5625 12.8745C18.6993 12.8745 18.8304 12.9288 18.9271 13.0255C19.0238 13.1222 19.0781 13.2534 19.0781 13.3901ZM10.6356 13.7545C10.7323 13.8511 10.8634 13.9053 11 13.9053C11.1366 13.9053 11.2677 13.8511 11.3644 13.7545L14.8019 10.317C14.893 10.2193 14.9425 10.09 14.9402 9.9564C14.9378 9.82282 14.8837 9.69537 14.7892 9.6009C14.6948 9.50643 14.5673 9.45231 14.4337 9.44995C14.3002 9.4476 14.1709 9.49718 14.0731 9.58826L11.5156 12.1449V3.76514C11.5156 3.62838 11.4613 3.49723 11.3646 3.40053C11.2679 3.30384 11.1368 3.24951 11 3.24951C10.8632 3.24951 10.7321 3.30384 10.6354 3.40053C10.5387 3.49723 10.4844 3.62838 10.4844 3.76514V12.1449L7.92687 9.58826C7.82913 9.49718 7.69985 9.4476 7.56627 9.44995C7.43268 9.45231 7.30523 9.50643 7.21076 9.6009C7.11629 9.69537 7.06217 9.82282 7.05982 9.9564C7.05746 10.09 7.10705 10.2193 7.19813 10.317L10.6356 13.7545Z" fill="#101010"/>
</svg>
