<svg width="90" height="36" viewBox="0 0 90 36" fill="none" xmlns="http://www.w3.org/2000/svg">
<path d="M0 0V36H90V0H0ZM45.0075 34.2C19.905 34.2 1.8 26.85 1.8 18C1.8 9.15 19.9163 1.8 45.0075 1.8C70.095 1.8 88.2 9.15 88.2 18C88.2 26.85 70.11 34.2 45.0075 34.2ZM44.1638 11.4675H59.8238V15.0825C59.4375 14.9063 59.0625 14.9063 58.6763 14.9063H52.0838V16.6313H58.4175V19.3763H52.0838V21.09H58.6763C59.0625 21.09 59.4375 21.09 59.8238 20.9025V24.5288H44.1638C44.3588 24.15 44.3588 23.7863 44.3588 23.4075V12.6C44.3588 12.2213 44.3588 11.8575 44.1638 11.4675ZM17.6288 12.6V23.4038C17.6288 23.7825 17.6288 24.1463 17.8238 24.525H9C9.195 24.1463 9.195 23.7825 9.195 23.4038V12.6C9.195 12.2213 9.195 11.8575 9 11.4788H17.8238C17.6288 11.8575 17.6288 12.2213 17.6288 12.6ZM41.805 23.4038C42.09 23.805 42.3975 24.1838 42.7613 24.525H33.0188C33.0188 24.1463 32.6438 23.3775 32.2313 22.7738C31.8188 22.17 29.5875 18.8588 29.5875 18.8588V23.4038C29.5875 23.7825 29.5875 24.1463 29.7825 24.525H21.6675C21.8625 24.1463 21.8625 23.7825 21.8625 23.4038V12.6C21.8625 12.2213 21.8625 11.8575 21.6675 11.4788H29.7825C29.5875 11.8575 29.5875 12.2213 29.5875 12.6V17.3213C29.5875 17.3213 32.1788 14.0213 32.775 13.2525C33.225 12.675 33.78 11.8538 33.78 11.4788H42.2438C41.6625 11.8575 41.0175 12.5363 40.4888 13.1663L37.3913 16.8563C37.3913 16.8563 41.2875 22.6613 41.805 23.4038ZM81.3525 12.135C81.3525 11.9599 81.2838 11.7918 81.161 11.6669C81.0382 11.5421 80.8713 11.4705 80.6963 11.4675H79.9088V13.5338H80.22V12.8025H80.67L81.0825 13.5338H81.4313L80.9813 12.7388C81.092 12.6811 81.185 12.5945 81.2503 12.4882C81.3157 12.3819 81.351 12.2598 81.3525 12.135ZM80.6438 12.5138H80.2163V11.7975H80.6813C80.8875 11.7975 81.03 11.9738 81.03 12.1762C81.03 12.375 80.85 12.525 80.6438 12.5138ZM80.565 10.8H80.4488C80.2282 10.8034 80.0104 10.8506 79.8082 10.9388C79.606 11.0271 79.4234 11.1546 79.2709 11.3141C79.1185 11.4736 78.9992 11.6617 78.9201 11.8677C78.8409 12.0736 78.8035 12.2932 78.81 12.5138C78.81 12.54 78.81 12.5775 78.7988 12.6C78.8173 13.0616 79.0179 13.497 79.3566 13.8111C79.6953 14.1253 80.1446 14.2925 80.6063 14.2763C80.8348 14.2733 81.0605 14.2254 81.2704 14.1352C81.4804 14.0451 81.6706 13.9144 81.8301 13.7507C81.9896 13.5871 82.1153 13.3936 82.2 13.1814C82.2847 12.9691 82.3267 12.7423 82.3238 12.5138V12.45C82.317 12.2261 82.2661 12.0057 82.1739 11.8015C82.0818 11.5972 81.9503 11.4132 81.7869 11.2599C81.6235 11.1066 81.4315 10.9871 81.2218 10.9082C81.0121 10.8293 80.7889 10.7925 80.565 10.8ZM80.565 13.8863C80.197 13.8893 79.8426 13.7467 79.5792 13.4896C79.3158 13.2325 79.1647 12.8818 79.1588 12.5138V12.4125C79.1674 12.2366 79.2107 12.0642 79.2861 11.905C79.3615 11.7459 79.4675 11.6032 79.5981 11.4851C79.7288 11.367 79.8814 11.2759 80.0473 11.2169C80.2132 11.1579 80.3892 11.1322 80.565 11.1412C81.3375 11.1412 81.9713 11.76 81.9713 12.5138C81.9713 13.2675 81.3413 13.8863 80.565 13.8863ZM77.2763 12.615C77.1338 12.2363 76.9275 11.8725 77.0325 11.4938H65.7188C65.7713 11.8725 65.6288 12.2363 65.4863 12.615L61.4738 23.4188C61.3487 23.8295 61.1421 24.2109 60.8663 24.54H67.56C67.5075 24.1613 67.65 23.7975 67.7775 23.4188C67.905 23.04 68.0475 22.6763 68.0475 22.6763L68.1263 22.4738H73.0163L73.095 22.6613C73.275 23.1038 73.4063 23.4038 73.4063 23.4038C73.56 23.7825 73.7025 24.1463 73.665 24.525H82.1513C81.8648 24.1991 81.649 23.8173 81.5175 23.4038C80.1118 19.8043 78.6981 16.2081 77.2763 12.615ZM69.15 19.7138C69.7313 18.1388 70.2338 16.8188 70.2713 16.6913C70.3763 16.4138 70.4513 16.125 70.5038 15.8363C70.5675 16.125 70.6575 16.4138 70.7625 16.6913L71.9475 19.7138H69.15Z" fill="#171717"/>
</svg>
